<svg xmlns="http://www.w3.org/2000/svg" viewBox="0 0 256 28">
  <rect x="0" y="0" width="256" height="28" fill="#FFFFFF" fill-opacity="0"/>
  <rect x="0" y="0" width="72" height="20" fill="#171717" fill-opacity="1"/>
  <rect x="77" y="7" width="178" height="20" fill="#FFFFFF" fill-opacity="1"/>
  <path fill="#FFFFFF" d="M1.49 0L4.50 0L4.50-6.23L12.05-6.23L12.05-8.89L4.50-8.89L4.50-12.49L12.81-12.49L12.81-15.36L1.49-15.36ZM14.66 0L17.62 0L17.62-5.42L21.06-5.42L23.94 0L27.27 0L23.70-5.92C25.56-6.85 26.40-8.86 26.40-10.51C26.40-13.60 24.47-15.36 21.00-15.36L14.66-15.36ZM17.62-7.88L17.62-12.77L20.67-12.77C22.64-12.77 23.61-11.96 23.61-10.44C23.61-8.82 22.47-7.88 20.69-7.88ZM27.47-7.68C27.47-2.63 31.00 0.22 35.44 0.22C39.98 0.22 43.49-2.63 43.49-7.68C43.49-12.97 39.98-15.58 35.44-15.58C31.00-15.58 27.47-12.75 27.47-7.68ZM30.46-7.68C30.46-11.10 32.63-12.79 35.44-12.79C38.33-12.79 40.53-11.10 40.53-7.68C40.53-4.26 38.33-2.59 35.44-2.59C32.63-2.59 30.46-4.26 30.46-7.68ZM45.79 0L56.96 0L56.96-2.90L48.78-2.90L48.78-15.36L45.79-15.36ZM58.81 0L61.81 0L61.81-6.23L69.36-6.23L69.36-8.89L61.81-8.89L61.81-12.49L70.13-12.49L70.13-15.36L58.81-15.36Z" transform="translate(0,18)"/>
  <path fill="#171717" d="M1.49 0L4.50 0L4.50-6.23L12.05-6.23L12.05-8.89L4.50-8.89L4.50-12.49L12.81-12.49L12.81-15.36L1.49-15.36ZM24.44-5.99C24.44-3.80 23.00-2.68 20.89-2.68C18.72-2.68 17.49-3.80 17.49-5.99L17.49-15.36L14.48-15.36L14.48-5.55C14.48-1.62 17.47 0.22 20.91 0.22C24.47 0.22 27.36-1.62 27.36-5.55L27.36-15.36L24.44-15.36ZM30.17 0L33.05 0L33.05-10.44L33.15-10.44L40.55 0L43.45 0L43.45-15.36L40.62-15.36L40.62-4.78L40.51-4.78L33.09-15.36L30.17-15.36ZM46.25-15.36L46.25 0L52.60 0C57.27 0 59.31-3.34 59.31-7.68C59.31-12.05 57.27-15.36 52.60-15.36ZM51.63-12.49C54.24-12.49 56.19-11.48 56.19-7.68C56.19-3.86 54.26-2.90 51.65-2.90L49.24-2.90L49.24-12.49ZM68.86-15.36L65.10-15.36L59.60 0L62.80 0L63.76-2.85L70.44-2.85L71.47 0L74.89 0ZM64.53-5.16L66.88-12.18L67.10-12.18L69.62-5.16ZM76.49 0L79.37 0L79.37-9.83L79.48-9.83L83.60-2.00L85.64-2.00L90.05-9.83L90.16-9.83L90.16 0L93.12 0L93.12-15.36L90.12-15.36L84.81-5.55L84.72-5.55L79.45-15.36L76.49-15.36ZM96.04 0L107.41 0L107.41-2.90L99.03-2.90L99.03-6.49L106.71-6.49L106.71-9.22L99.03-9.22L99.03-12.49L107.41-12.49L107.41-15.36L96.04-15.36ZM109.25 0L112.13 0L112.13-10.44L112.24-10.44L119.63 0L122.53 0L122.53-15.36L119.70-15.36L119.70-4.78L119.59-4.78L112.17-15.36L109.25-15.36ZM124.15-15.36L124.15-12.84L128.78-12.84L128.78 0L131.74 0L131.74-12.84L136.35-12.84L136.35-15.36ZM143.96-15.36L140.21-15.36L134.70 0L137.91 0L138.87-2.85L145.54-2.85L146.58 0L150.00 0ZM139.64-5.16L141.99-12.18L142.21-12.18L144.73-5.16ZM151.60 0L162.77 0L162.77-2.90L154.58-2.90L154.58-15.36L151.60-15.36ZM176.26-10.31C176.26-13.76 173.83-15.58 169.90-15.58C166.37-15.58 164.00-13.82 164.00-11.45C164.00-5.86 173.30-7.88 173.30-4.26C173.30-3.01 172.01-2.19 170.16-2.19C168.03-2.19 166.78-3.29 166.78-5.07L163.78-5.07C163.78-1.43 166.35 0.22 170.23 0.22C173.78 0.22 176.26-1.56 176.26-4.26C176.26-9.83 166.87-8.14 166.87-11.41C166.87-12.73 168.47-13.19 169.92-13.19C171.92-13.19 173.30-12.07 173.30-10.31Z" transform="translate(77, 25)"/>
  </svg>