<svg xmlns="http://www.w3.org/2000/svg" viewBox="0 0 256 28">
  <rect x="0" y="0" width="256" height="28" fill-opacity="0"/>
  <rect x="0" y="0" width="68" height="23" fill="#FFFFFF"/>
  <rect x="73.08" y="5" width="183" height="23" fill="#FFFFFF"/>
  <path d="M11.57-12.85L11.42-12.1L4.45-12.1L3.33-6.55L9.49-6.55L9.36-5.77L3.18-5.77L2.02 0L1.25 0L3.82-12.85L11.57-12.85ZM22.73-9.47Q22.73-7.54 21.66-6.22Q20.59-4.91 18.64-4.47L18.64-4.47L20.94 0L20.04 0L17.85-4.34Q17.36-4.28 16.79-4.28L16.79-4.28L13.02-4.28L12.15 0L11.38 0L13.96-12.85L18.5-12.85Q20.54-12.85 21.63-11.97Q22.73-11.09 22.73-9.47L22.73-9.47ZM16.93-5.04Q19.27-5.04 20.62-6.19Q21.97-7.34 21.97-9.3L21.97-9.3Q21.97-10.65 21.03-11.37Q20.1-12.1 18.37-12.1L18.37-12.1L14.58-12.1L13.16-5.04L16.93-5.04ZM31.97-12.94Q33.67-12.94 35.05-12.16Q36.44-11.38 37.23-10.04Q38.02-8.7 38.02-7.06L38.02-7.06Q38.02-5.19 37.01-3.54Q36-1.89 34.31-0.91Q32.62 0.07 30.71 0.07L30.71 0.07Q29 0.07 27.62-0.71Q26.24-1.49 25.46-2.84Q24.68-4.19 24.68-5.83L24.68-5.83Q24.68-7.72 25.69-9.36Q26.7-11 28.38-11.97Q30.06-12.94 31.97-12.94L31.97-12.94ZM31.94-12.19Q30.23-12.19 28.74-11.33Q27.25-10.46 26.35-9.01Q25.45-7.56 25.45-5.87L25.45-5.87Q25.45-4.43 26.15-3.25Q26.84-2.06 28.06-1.37Q29.27-0.68 30.76-0.68L30.76-0.68Q32.43-0.68 33.93-1.55Q35.43-2.43 36.34-3.89Q37.25-5.35 37.25-7.02L37.25-7.02Q37.25-8.44 36.55-9.63Q35.85-10.81 34.63-11.5Q33.41-12.19 31.94-12.19L31.94-12.19ZM43.15-12.85L40.71-0.77L46.43-0.77L46.28 0L39.81 0L42.38-12.85L43.15-12.85ZM59.33-12.85L59.19-12.1L52.22-12.1L51.1-6.55L57.26-6.55L57.13-5.77L50.95-5.77L49.79 0L49.02 0L51.59-12.85L59.33-12.85Z" transform="translate(4 18)"/>
  <path d="M12.45-12.89L11.91-10.2L5.66-10.2L5.09-7.34L10.87-7.34L10.33-4.65L4.56-4.65L3.62 0L0.26 0L2.83-12.89L12.45-12.89ZM25.65-12.89L24.16-5.41Q23.65-2.83 21.84-1.34Q20.04 0.15 17.34 0.15L17.34 0.15Q15.76 0.15 14.59-0.38Q13.42-0.9 12.79-1.88Q12.15-2.85 12.15-4.17L12.15-4.17Q12.15-4.82 12.28-5.41L12.28-5.41L13.79-12.89L17.14-12.89L15.65-5.41Q15.57-5.09 15.57-4.74L15.57-4.74Q15.57-3.81 16.15-3.26Q16.73-2.72 17.72-2.72L17.72-2.72Q18.85-2.72 19.69-3.45Q20.54-4.17 20.8-5.41L20.8-5.41L22.28-12.89L25.65-12.89ZM35.17-5.13L36.74-12.89L39.86-12.89L37.29 0L34.35 0L30.06-7.72L28.5 0L25.36 0L27.93-12.89L30.87-12.89L35.17-5.13ZM47.64-12.89Q49.44-12.89 50.79-12.21Q52.14-11.53 52.87-10.3Q53.6-9.06 53.6-7.45L53.6-7.45Q53.6-5.3 52.55-3.59Q51.5-1.89 49.66-0.95Q47.82 0 45.56 0L45.56 0L39.83 0L42.38-12.89L47.64-12.89ZM50.12-7.08Q50.12-8.46 49.31-9.3Q48.5-10.15 47.16-10.15L47.16-10.15L45.21-10.15L43.72-2.72L46.17-2.72Q47.25-2.72 48.16-3.28Q49.07-3.84 49.6-4.84Q50.12-5.83 50.12-7.08L50.12-7.08ZM66.63 0L63.03 0L62.53-2.28L56.94-2.28L55.68 0L52.24 0L59.9-12.89L63.36-12.89L66.63 0ZM60.97-9.52L58.38-4.85L61.98-4.85L60.97-9.52ZM76.27-5.26L81.47-12.89L85.11-12.89L82.61 0L79.65 0L81.27-8.27L76.56-1.29L74.41-1.29L72.44-8.29L70.83 0L67.87 0L70.37-12.89L73.99-12.89L76.27-5.26ZM98.17 0L94.56 0L94.07-2.28L88.48-2.28L87.21 0L83.77 0L91.44-12.89L94.89-12.89L98.17 0ZM92.5-9.52L89.91-4.85L93.52-4.85L92.5-9.52ZM109.14-5.13L110.71-12.89L113.83-12.89L111.26 0L108.32 0L104.03-7.72L102.47 0L99.33 0L101.9-12.89L104.84-12.89L109.14-5.13ZM126.52-12.89L125.99-10.2L119.18-10.2L118.69-7.8L124.85-7.8L124.31-5.13L118.15-5.13L117.66-2.68L124.66-2.68L124.13 0L113.78 0L116.35-12.89L126.52-12.89ZM127.64-12.89L138.69-12.89L138.14-10.11L134.3-10.11L132.26 0L128.89 0L130.93-10.11L127.09-10.11L127.64-12.89ZM149.17 0L145.57 0L145.07-2.28L139.48-2.28L138.21 0L134.77 0L142.44-12.89L145.9-12.89L149.17 0ZM143.51-9.52L140.92-4.85L144.52-4.85L143.51-9.52ZM156.27-12.89L154.26-2.87L159.73-2.87L159.16 0L150.33 0L152.9-12.89L156.27-12.89ZM167.3-13.13Q168.68-13.13 170-12.73Q171.33-12.34 172.3-11.68L172.3-11.68L170.74-8.99Q169.8-9.6 168.67-9.99Q167.54-10.39 166.75-10.39L166.75-10.39Q166.11-10.39 165.72-10.15Q165.33-9.91 165.3-9.45L165.3-9.45Q165.28-8.86 165.82-8.55Q166.36-8.24 167.56-7.87L167.56-7.87Q168.75-7.5 169.54-7.14Q170.32-6.78 170.88-6.08Q171.44-5.37 171.44-4.23L171.44-4.23Q171.44-2.81 170.69-1.81Q169.95-0.81 168.67-0.3Q167.39 0.2 165.85 0.2L165.85 0.2Q164.23 0.2 162.7-0.35Q161.18-0.9 160.11-1.88L160.11-1.88L161.67-4.52Q162.56-3.66 163.84-3.1Q165.11-2.54 166.14-2.54L166.14-2.54Q166.95-2.54 167.41-2.84Q167.87-3.14 167.87-3.73L167.87-3.73Q167.87-4.14 167.58-4.4Q167.28-4.67 166.84-4.84Q166.4-5 165.57-5.26L165.57-5.26Q164.38-5.59 163.61-5.94Q162.83-6.29 162.28-6.97Q161.73-7.65 161.73-8.75L161.73-8.75Q161.73-10.08 162.43-11.06Q163.13-12.04 164.39-12.59Q165.65-13.13 167.3-13.13L167.3-13.13Z" transform="translate(78 23)"/>
</svg>